#tb 0: 1/48000
#media_type 0: audio
#codec_id 0: eac3
#sample_rate 0: 48000
#channel_layout 0: 60f
#channel_layout_name 0: 5.1(side)
0,          0,          0,     1536,     1024, 0x1be3fea9, S=1,        4, 0x00000000
0,       1536,       1536,     1536,     1024, 0x4b65fb5f
0,       3072,       3072,     1536,     1024, 0xe044eed5
0,       4608,       4608,     1536,     1024, 0x4336ed35
0,       6144,       6144,     1536,     1024, 0x93e6facc
0,       7680,       7680,     1536,     1024, 0x4bebe3a0
0,       9216,       9216,     1536,     1024, 0xa54fec79
0,      10752,      10752,     1536,     1024, 0x9481de90
0,      12288,      12288,     1536,     1024, 0x6032f9ac
0,      13824,      13824,     1536,     1024, 0xfd0dfb2d
0,      15360,      15360,     1536,     1024, 0x0fa7f0b0
0,      16896,      16896,     1536,     1024, 0xef04ea99
0,      18432,      18432,     1536,     1024, 0xe477ed37
0,      19968,      19968,     1536,     1024, 0x8dd9eab1
0,      21504,      21504,     1536,     1024, 0x96adf25d
